<svg width="23" height="23" viewBox="0 0 23 23" fill="none" xmlns="http://www.w3.org/2000/svg">
<g opacity="0.6" filter="url(#filter0_d_1_1082)">
<path d="M17.9444 12.6545H4.60312C4.49483 12.6545 4.38654 12.7628 4.38654 12.8711C4.38654 13.4992 4.90633 14.019 5.53441 14.019H17.0348C17.6629 14.019 18.1827 13.4992 18.1827 12.8711C18.161 12.7628 18.0744 12.6545 17.9444 12.6545Z" fill="#73738D"/>
<path d="M17.0998 9.16726C16.6233 8.82074 15.9302 8.77742 15.3888 9.03732C14.8473 9.29721 14.1976 9.29721 13.6345 9.03732C13.1797 8.82074 12.5949 8.82074 12.1401 9.03732C11.5986 9.29721 10.9489 9.29721 10.3858 9.03732C9.93096 8.82074 9.34619 8.82074 8.89137 9.03732C8.34992 9.29721 7.70018 9.29721 7.13708 9.03732C6.61729 8.79908 5.96755 8.82074 5.49107 9.12395C5.46941 9.12395 5.44775 9.1456 5.44775 9.16726V12.221H17.0998V9.16726Z" fill="#73738D"/>
<path d="M7.35367 8.64779C7.78683 8.84271 8.30662 8.84271 8.71812 8.64779C9.30289 8.36624 10.0176 8.36624 10.5807 8.64779C11.0139 8.84271 11.5337 8.84271 11.9452 8.64779C12.5299 8.36624 13.2446 8.36624 13.8294 8.64779C14.2626 8.84271 14.7824 8.84271 15.1939 8.64779C15.7786 8.36624 16.515 8.36624 17.0781 8.66945V8.38789C17.0781 7.41328 16.2768 6.61194 15.3021 6.61194H7.24538C6.27077 6.61194 5.46942 7.41328 5.46942 8.38789V8.66945C6.03253 8.38789 6.74724 8.36624 7.35367 8.64779Z" fill="#73738D"/>
<path d="M14.6524 4.66267C14.6524 4.22951 14.3059 3.86133 13.8511 3.86133C13.4179 3.86133 13.0497 4.20786 13.0497 4.66267V6.17873H14.6524V4.66267Z" fill="#73738D"/>
<path d="M9.49783 4.66267C9.49783 4.22951 9.12965 3.86133 8.69649 3.86133C8.26333 3.86133 7.89514 4.20786 7.89514 4.66267V6.17873H9.49783V4.66267Z" fill="#73738D"/>
<path d="M12.0751 3.7314C12.0751 3.29824 11.7069 2.93005 11.2738 2.93005C10.8406 2.93005 10.4724 3.29824 10.4724 3.7314V6.17875H12.0751V3.7314Z" fill="#73738D"/>
<path d="M13.8511 3.29823C14.2843 3.29823 14.6308 2.9517 14.6308 2.51854C14.6308 2.17201 14.176 1.41398 14.0244 1.1974C13.981 1.13243 13.9161 1.08911 13.8511 1.08911C13.7861 1.08911 13.6995 1.13243 13.6778 1.1974C13.5262 1.41398 13.0714 2.17201 13.0714 2.51854C13.0714 2.9517 13.4179 3.29823 13.8511 3.29823Z" fill="#73738D"/>
<path d="M8.6965 3.29823C9.12966 3.29823 9.47618 2.9517 9.47618 2.51854C9.47618 2.17201 9.02137 1.41398 8.86976 1.1974C8.82644 1.13243 8.76147 1.08911 8.6965 1.08911C8.63152 1.08911 8.54489 1.13243 8.52323 1.1974C8.37163 1.41398 7.91681 2.17201 7.91681 2.51854C7.91681 2.9517 8.26334 3.29823 8.6965 3.29823Z" fill="#73738D"/>
<path d="M11.2738 2.36695C11.7069 2.36695 12.0535 2.02042 12.0535 1.58726C12.0535 1.24074 11.5986 0.504365 11.447 0.266127C11.4254 0.201153 11.3387 0.157837 11.2738 0.157837C11.2088 0.157837 11.1222 0.201153 11.1005 0.266127C10.9489 0.482707 10.4941 1.24074 10.4941 1.58726C10.4941 1.99877 10.8406 2.36695 11.2738 2.36695Z" fill="#73738D"/>
</g>
<defs>
<filter id="filter0_d_1_1082" x="0.386536" y="0.157837" width="21.7961" height="21.8611" filterUnits="userSpaceOnUse" color-interpolation-filters="sRGB">
<feFlood flood-opacity="0" result="BackgroundImageFix"/>
<feColorMatrix in="SourceAlpha" type="matrix" values="0 0 0 0 0 0 0 0 0 0 0 0 0 0 0 0 0 0 127 0" result="hardAlpha"/>
<feOffset dy="4"/>
<feGaussianBlur stdDeviation="2"/>
<feComposite in2="hardAlpha" operator="out"/>
<feColorMatrix type="matrix" values="0 0 0 0 0 0 0 0 0 0 0 0 0 0 0 0 0 0 0.25 0"/>
<feBlend mode="normal" in2="BackgroundImageFix" result="effect1_dropShadow_1_1082"/>
<feBlend mode="normal" in="SourceGraphic" in2="effect1_dropShadow_1_1082" result="shape"/>
</filter>
</defs>
</svg>
