<svg width="53" height="53" viewBox="0 0 53 53" fill="none" xmlns="http://www.w3.org/2000/svg">
<rect x="0.0680542" y="0.270752" width="51.9792" height="51.9792" rx="25.9896" fill="#E4F7F2"/>
<path d="M20.3607 26.6513C20.1238 26.2071 19.65 25.9406 19.1466 25.9406H17.5773C17.9623 21.6472 21.5451 18.2717 25.9273 18.2717C27.3486 18.2717 28.7403 18.627 29.9839 19.3376C30.6353 19.7226 31.4644 19.4857 31.8493 18.8046C32.2342 18.1532 31.9974 17.3241 31.3163 16.9392C29.6878 16.0213 27.8224 15.5179 25.9273 15.5179C20.0349 15.5179 15.2381 20.1371 14.8828 25.911H13.2247C12.7213 25.911 12.2475 26.1775 12.0107 26.6217C11.7738 27.0658 11.8034 27.5988 12.0699 28.0133L15.0309 32.5733C15.2974 32.9582 15.7119 33.1951 16.1857 33.1951C16.6594 33.1951 17.074 32.9582 17.3404 32.5733L20.3014 28.0133C20.5975 27.6284 20.5975 27.0658 20.3607 26.6513Z" fill="#26C296"/>
<path d="M39.7889 25.2007L36.8279 20.6407C36.3246 19.8709 35.0513 19.8709 34.548 20.6407L31.5574 25.2007C31.2909 25.6152 31.2613 26.1482 31.4982 26.5923C31.735 27.0365 32.2088 27.303 32.7122 27.303H34.2815C33.8966 31.5964 30.3138 34.972 25.9315 34.972C24.5398 34.972 23.1185 34.6166 21.8749 33.906C21.2235 33.5507 20.3944 33.7876 20.0095 34.439C19.6542 35.0904 19.8911 35.9195 20.5425 36.3044C22.2006 37.2223 24.0364 37.6961 25.9315 37.6961C31.8239 37.6961 36.6207 33.0769 37.0056 27.303H38.6341C39.1375 27.303 39.6113 27.0365 39.8481 26.5923C40.0554 26.1482 40.0554 25.6152 39.7889 25.2007Z" fill="#26C296"/>
</svg>
