<svg width="13" height="13" viewBox="0 0 13 13" fill="none" xmlns="http://www.w3.org/2000/svg">
<path opacity="0.6" d="M6.31627 0.453796C2.86075 0.453796 0.0787659 3.26506 0.0787659 6.6913C0.0787659 10.1468 2.89003 12.9288 6.31627 12.9288C9.77178 12.9288 12.5538 10.1175 12.5538 6.6913C12.5538 3.23578 9.77178 0.453796 6.31627 0.453796ZM9.09825 6.07633L6.49197 8.68261C6.31627 8.85831 6.05271 8.97545 5.81844 8.97545C5.58416 8.97545 5.32061 8.8876 5.1449 8.68261L3.53428 7.07199C3.15359 6.6913 3.15359 6.07633 3.53428 5.69564C3.91497 5.31495 4.52994 5.31495 4.91063 5.69564L5.84772 6.63273L7.75118 4.72927C8.13188 4.34857 8.74684 4.34857 9.12753 4.72927C9.47894 5.08067 9.47894 5.69564 9.09825 6.07633Z" fill="#73738D"/>
</svg>
