<svg width="13" height="13" viewBox="0 0 13 13" fill="none" xmlns="http://www.w3.org/2000/svg">
<path d="M7.68695 7.62182V7.72604C7.68695 8.50765 7.04864 9.14596 6.26703 9.14596C5.48542 9.14596 4.8471 8.50765 4.8471 7.72604V7.62182L0.339821 6.74902C0.248633 6.736 0.157446 6.70994 0.0792847 6.65784V10.5919C0.0792847 11.5559 0.860894 12.3375 1.82488 12.3375H10.7222C11.6862 12.3375 12.4678 11.5559 12.4678 10.5919V6.65784C12.3896 6.69692 12.2984 6.72297 12.2073 6.74902L7.68695 7.62182Z" fill="#73738D"/>
<path d="M10.7352 3.12768H9.14595V2.47634C9.14595 1.47328 8.32526 0.652588 7.3222 0.652588H5.21185C4.20879 0.652588 3.3881 1.47328 3.3881 2.47634V3.12768H1.79883C0.847867 3.12768 0.0792847 3.89627 0.0792847 4.84722V5.57673C0.0792847 5.81121 0.248633 6.00661 0.470089 6.05872L4.8471 6.90546C4.86013 6.13688 5.48542 5.52462 6.26702 5.52462C7.03561 5.52462 7.67392 6.13688 7.68695 6.90546L12.0509 6.05872C12.2854 6.00661 12.4548 5.81121 12.4548 5.57673V4.8342C12.4548 3.89627 11.6862 3.12768 10.7352 3.12768ZM4.72986 2.46332C4.72986 2.20278 4.95132 1.99435 5.19883 1.99435H7.3222C7.58273 1.99435 7.79116 2.21581 7.79116 2.46332V3.11466H4.72986V2.46332Z" fill="#73738D"/>
<path d="M6.98385 7.72562V6.94401C6.98385 6.55321 6.65818 6.22754 6.26738 6.22754C5.87657 6.22754 5.5509 6.55321 5.5509 6.94401V7.72562C5.5509 8.11643 5.87657 8.4421 6.26738 8.4421C6.65818 8.4421 6.98385 8.11643 6.98385 7.72562Z" fill="#73738D"/>
</svg>
